# xmcd
#
# Track frame offsets:
#	150
#	11050
#	24613
#	37479
#	51702
#	67769
#	78763
#	97341
#	110548
#	122966
#
# Disc length: 1837 seconds
#
# Revision: 1
# Processed by: cddbd v1.5.2PL0 Copyright (c) Steve Scherf et al.
# Submitted via: EZCDAudioConverter 7.1.5.1
#
DISCID=8f072b0a
DTITLE=Beny More y 11 Leyendas de La Musica Cubana - Serie de Oro CD3
DYEAR=2004
DGENRE=Latin
TTITLE0=Beny Moré - Francisco Guayabel
TTITLE1=Bola de Nieve - No Puedo Ser Feliz
TTITLE2=Celio González - Humo
TTITLE3=Trio Matamoros - El Que Siembra Su Maiz
TTITLE4=Beny Moré - Mata Siguaraya
TTITLE5=Alberto Beltran - Caña Brava
TTITLE6=Albita Rodriguez - Si Se da la Siembra
TTITLE7=Pérez Prado - Cerezo Rosa
TTITLE8=Orquesta Aragón - Pare Cochero
TTITLE9=Beny Moré - Santa Isabel de las Lajas
EXTD=
EXTT0=
EXTT1=
EXTT2=
EXTT3=
EXTT4=
EXTT5=
EXTT6=
EXTT7=
EXTT8=
EXTT9=
PLAYORDER=
